<?xml version="1.0" encoding="utf-8"?>
<!-- Generator: Adobe Illustrator 24.1.3, SVG Export Plug-In . SVG Version: 6.00 Build 0)  -->
<svg version="1.1" id="Capa_1" xmlns="http://www.w3.org/2000/svg" xmlns:xlink="http://www.w3.org/1999/xlink" x="0px" y="0px"
	 viewBox="0 0 474.5 474.5" style="enable-background:new 0 0 474.5 474.5;" xml:space="preserve">
<style type="text/css">
	.st0{fill:#FFFFFF;}
</style>
<g>
	<g>
		<path class="st0" d="M237.3,60.5c-4.6,3.5-68.4,51-150.2,67.4C76.3,316.6,237.2,414.3,237.3,414.2c0.1,0.1,161-97.6,150.2-286.4
			C305.7,111.5,237.3,60.5,237.3,60.5z"/>
		<path class="st0" d="M440.6,97.4c-0.3-5.7-4.5-10.5-10.1-11.6c-99.7-20-184.9-82.7-185.7-83.3c-4.5-3.4-10.7-3.3-15.2,0.1
			C226.3,5.1,146.2,65.3,44,85.8c-5.6,1.1-9.8,5.9-10.1,11.7C25.7,240.8,93,344,150.9,405.3c21.7,23,42.1,40,55.4,50.2
			c7.6,5.9,13.8,10.2,17.6,12.7c7.1,4.8,9.2,6.2,13.1,6.3c0.2,0,0.3,0,0.5,0c3.9,0,6.2-1.6,12.4-5.7c3.3-2.2,8.8-6,15.5-11.1
			c11.8-8.9,29.9-23.6,49.8-43.6c37.3-37.5,67-79.4,88.3-124.3C431.9,229.5,444.5,164.7,440.6,97.4z M330.2,359.4
			c-38.3,48-77.9,77.3-92.9,87.5c-15-10.2-54.6-39.5-92.9-87.5c-59.9-75.2-88.7-159.5-85.7-250.9C145,89,214.8,43.9,237.3,28.1
			c22.9,15.7,93.9,61.1,178.6,80.3C418.9,199.8,390.1,284.2,330.2,359.4z"/>
	</g>
</g>
</svg>
