<?xml version="1.0" encoding="utf-8"?>
<!-- Generator: Adobe Illustrator 24.1.3, SVG Export Plug-In . SVG Version: 6.00 Build 0)  -->
<svg version="1.1" id="Capa_1" xmlns="http://www.w3.org/2000/svg" xmlns:xlink="http://www.w3.org/1999/xlink" x="0px" y="0px"
	 viewBox="0 0 512 512" style="enable-background:new 0 0 512 512;" xml:space="preserve">
<style type="text/css">
	.st0{fill:#155EB1;}
</style>
<g>
	<g>
		<polygon class="st0" points="435.2,409.6 473.6,512 512,409.6 		"/>
	</g>
</g>
<g>
	<g>
		<path class="st0" d="M499.2,0H448c-7.7,0-12.8,5.1-12.8,12.8v345.6H512V12.8C512,5.1,506.9,0,499.2,0z"/>
	</g>
</g>
<g>
	<g>
		<path class="st0" d="M358.4,0H25.6C10.2,0,0,10.2,0,25.6v460.8C0,501.8,10.2,512,25.6,512h332.8c15.4,0,25.6-10.2,25.6-25.6V25.6
			C384,10.2,373.8,0,358.4,0z M256,435.2H76.8c-15.4,0-25.6-10.2-25.6-25.6c0-15.4,10.2-25.6,25.6-25.6H256
			c15.4,0,25.6,10.2,25.6,25.6C281.6,425,271.4,435.2,256,435.2z M307.2,332.8H76.8c-15.4,0-25.6-10.2-25.6-25.6
			c0-15.4,10.2-25.6,25.6-25.6h230.4c15.4,0,25.6,10.2,25.6,25.6C332.8,322.6,322.6,332.8,307.2,332.8z M307.2,230.4H76.8
			c-15.4,0-25.6-10.2-25.6-25.6s10.2-25.6,25.6-25.6h230.4c15.4,0,25.6,10.2,25.6,25.6C332.8,220.2,322.6,230.4,307.2,230.4z
			 M307.2,128H76.8c-15.4,0-25.6-10.2-25.6-25.6s10.2-25.6,25.6-25.6h230.4c15.4,0,25.6,10.2,25.6,25.6
			C332.8,117.8,322.6,128,307.2,128z"/>
	</g>
</g>
</svg>
