<?xml version="1.0" encoding="utf-8"?>
<!-- Generator: Adobe Illustrator 24.1.3, SVG Export Plug-In . SVG Version: 6.00 Build 0)  -->
<svg version="1.1" id="Layer_1" xmlns="http://www.w3.org/2000/svg" xmlns:xlink="http://www.w3.org/1999/xlink" x="0px" y="0px"
	 viewBox="0 0 106.18 88.85" style="enable-background:new 0 0 106.18 88.85;" xml:space="preserve">
<style type="text/css">
	.st0{fill:#FFFFFF;}
</style>
<g>
	<g>
		<g>
			<g>
				<path class="st0" d="M8.03,85.72c0.58,0.11,1.15,0.26,1.71,0.47c0.57,0.21,1.1,0.44,1.61,0.67v1.51H0l0-1.51
					c1.02-0.58,1.96-0.96,2.84-1.15V63.3C2.38,63.2,1.9,63.05,1.4,62.87c-0.5-0.18-0.96-0.42-1.4-0.71l0-1.5h17.72
					c0,0.63-0.01,1.36-0.03,2.18c-0.02,0.82-0.06,1.66-0.1,2.54c-0.05,0.87-0.12,1.72-0.21,2.55c-0.09,0.83-0.19,1.58-0.28,2.24
					h-1.42l-2.18-6.93H8.03V85.72z"/>
			</g>
			<g>
				<path class="st0" d="M23.68,88.38h-8.55v-1.51c0.37-0.26,0.77-0.49,1.19-0.69c0.43-0.2,0.85-0.35,1.26-0.46l8.93-25.55h2.56
					l8.69,25.55c0.46,0.11,0.92,0.26,1.38,0.46c0.46,0.2,0.87,0.43,1.21,0.69v1.51H29.53v-1.51c0.44-0.24,0.91-0.46,1.42-0.67
					c0.51-0.21,0.99-0.37,1.45-0.47l-2.01-6.3h-7.69l-2.04,6.3c1.06,0.16,2.07,0.54,3.01,1.15V88.38z M23.54,76.85h6.13l-2.25-7.57
					l-0.66-3.41h-0.07l-0.76,3.49L23.54,76.85z"/>
			</g>
			<g>
				<path class="st0" d="M47.36,63.7c-0.72-0.13-1.39-0.34-2.03-0.63c-0.64-0.29-1.18-0.59-1.64-0.91v-1.5h19.98v1.5
					c-0.35,0.24-0.77,0.46-1.26,0.67c-0.5,0.21-1.02,0.37-1.58,0.48v22.42c0.53,0.11,1.03,0.26,1.51,0.47
					c0.47,0.21,0.92,0.44,1.33,0.67v1.51H53v-1.51c0.39-0.24,0.81-0.46,1.26-0.65c0.45-0.2,0.91-0.36,1.37-0.49v-22.5h-5.64
					c-0.07,4.01-0.23,7.36-0.48,10.04c-0.25,2.68-0.57,4.89-0.94,6.64c-0.37,1.74-0.78,3.12-1.23,4.14c-0.45,1.02-0.92,1.9-1.4,2.63
					c-0.44,0.69-0.99,1.22-1.66,1.6c-0.67,0.38-1.32,0.57-1.94,0.57c-0.3-0.13-0.59-0.4-0.87-0.81c-0.28-0.41-0.53-0.88-0.76-1.41
					c-0.23-0.53-0.42-1.08-0.57-1.66c-0.15-0.58-0.24-1.12-0.26-1.62l0.93-1.51l4.12,1.15c0.3-0.74,0.59-1.63,0.88-2.67
					c0.29-1.04,0.55-2.33,0.78-3.86c0.23-1.53,0.42-3.34,0.55-5.43C47.29,68.94,47.36,66.5,47.36,63.7z"/>
			</g>
			<g>
				<path class="st0" d="M83.26,60.65c-0.05,1.19-0.13,2.42-0.24,3.68c-0.12,1.27-0.27,2.46-0.45,3.57h-1.42l-1.59-4.67h-6.47v9.7
					h4.22l1.52-3.05h1.11c0.12,1.29,0.17,2.73,0.17,4.32c0,1.58-0.06,3.06-0.17,4.44h-1.11L77.3,75.5h-4.22v10.3h6.75l1.83-5.03
					h1.42c0.09,0.5,0.18,1.07,0.28,1.7c0.09,0.63,0.17,1.29,0.23,1.96c0.06,0.67,0.1,1.35,0.14,2.04c0.03,0.69,0.05,1.32,0.05,1.9
					H65.05v-1.51c0.39-0.24,0.83-0.46,1.32-0.67c0.48-0.21,0.99-0.37,1.52-0.47V63.3c-0.46-0.11-0.95-0.26-1.47-0.46
					c-0.52-0.2-0.98-0.43-1.37-0.69v-1.5H83.26z"/>
			</g>
			<g>
				<path class="st0" d="M88.8,63.3c-1.08-0.21-2.03-0.59-2.84-1.15v-1.5h18.59c0,0.61-0.02,1.28-0.07,2.02
					c-0.05,0.74-0.1,1.48-0.17,2.22c-0.07,0.74-0.15,1.45-0.24,2.14c-0.09,0.69-0.19,1.31-0.28,1.86h-1.42l-2.15-5.66h-6.23v9.03
					c0.21-0.03,0.46-0.06,0.76-0.1c0.3-0.04,0.61-0.07,0.92-0.1c0.31-0.03,0.62-0.05,0.93-0.06c0.31-0.01,0.58-0.02,0.81-0.02
					c1.18,0,2.3,0.15,3.36,0.44c1.06,0.29,1.99,0.76,2.79,1.41c0.8,0.65,1.43,1.49,1.9,2.52c0.47,1.03,0.71,2.27,0.71,3.72
					c0,1.4-0.25,2.63-0.74,3.68c-0.5,1.06-1.18,1.94-2.04,2.63c-0.87,0.7-1.89,1.23-3.08,1.58c-1.19,0.36-2.48,0.53-3.86,0.53
					c-0.12,0-0.4-0.01-0.87-0.02c-0.46-0.01-0.98-0.03-1.56-0.04c-0.58-0.01-1.15-0.03-1.73-0.04c-0.58-0.01-1.04-0.02-1.39-0.02
					h-4.95v-1.51c0.44-0.29,0.89-0.53,1.37-0.73c0.47-0.2,0.96-0.34,1.47-0.42V63.3z M95.93,74.55c-0.37,0-0.73,0.02-1.07,0.06
					c-0.35,0.04-0.64,0.1-0.87,0.18v10.97c0.09,0.03,0.24,0.05,0.43,0.08c0.2,0.03,0.4,0.05,0.61,0.06
					c0.21,0.01,0.41,0.02,0.61,0.02c0.2,0,0.35,0,0.47,0c1.36,0,2.43-0.5,3.2-1.51c0.77-1,1.16-2.42,1.16-4.24
					c0-1.74-0.36-3.12-1.07-4.12C98.68,75.05,97.52,74.55,95.93,74.55z"/>
			</g>
		</g>
	</g>
	<g>
		<path class="st0" d="M96.55,21.09c-1.6,0.77-3.29,1.07-5,1.44c-4.68,1.01-9.49,1.32-13.78,3.73c-1.41,0.79-2.75,1.75-4.14,2.58
			c-2.06,1.23-3.36,3.21-5.38,4.47c-0.16,0.1-0.31,0.21-0.47,0.32c3.36-0.4,7.18,0.33,7.37,4.52c0.02,0.53-0.07,1-0.24,1.43
			c1.08,1.08,2.74,2.4,3.29,3.88c0.12,0.32-0.18,0.61-0.46,0.63c-1.17,0.06-2.19-0.83-3.27-1.15c-0.63-0.18-1.27-0.46-1.92-0.74
			c-0.17,0.13-0.35,0.26-0.52,0.39c-2.16,1.64-4.81,3.06-7.32,4.02c-2.59,0.99-5.25,2.34-8.11,1.77c-2.74-0.55-5.34-1.63-8.07-2.24
			c-3.12-0.7-6.25-1.8-9.34-2.69c-1.86-0.54-4.59-0.58-6.06-2.01c-0.06,0-0.12-0.01-0.17-0.01c-0.41-0.02-0.41-0.63,0-0.65
			c2.36-0.13,4.6-0.52,7-0.42c1.77,0.08,3.4-0.19,5.1-0.69c-0.1,0.03,1.53-0.53,2.57-0.97c-0.61-0.6-1.31-1.28-1.43-2.02
			c-0.15-0.91,0.02-1.89,0.49-2.63c-1.53-1.6-3.09-3.18-4.26-4.99c-3.67-5.68-8.25-10.01-14.17-13.17
			c-2.22-1.19-4.19-2.79-6.37-4.02c-2.05-1.15-4.24-2.14-6.22-3.39c-2.68-1.7-7-3.43-9.06-6.38c-0.51-0.5-0.98-1.05-1.42-1.65
			C5.16,0.39,5.16,0.31,5.18,0.23C5.19,0.1,5.31-0.04,5.47,0.01c0.02,0,0.03,0.01,0.05,0.01c0.03,0,0.05,0.01,0.08,0.02
			c2.37,0.69,4.57,1.94,6.94,2.64c2.67,0.8,5.32,1.26,7.96,2.17c5.91,2.03,12.52,2.7,18.08,5.77c2.78,1.53,6,2.03,8.65,3.77
			c1.92,1.26,3.31,3.09,4.71,4.9c1.68,2.17,3.5,4.95,4.78,7.39c1,1.91,2.43,4.72,4.17,6.75c0.04-0.03,0.07-0.07,0.12-0.1
			c1.49-1.02,2.98-1.93,4.61-2.68c3.66-1.69,7.04-4.74,11.02-5.7c3.93-0.95,7.63-2.37,11.72-2.63c2.37-0.15,4.75-0.64,7.02-1.32
			c1.97-0.59,3.64-2.13,5.59-2.54c0.04-0.01,0.06,0.05,0.02,0.07C99.45,19.15,98.06,20.36,96.55,21.09z"/>
	</g>
</g>
</svg>
