<?xml version="1.0" encoding="utf-8"?>
<!-- Generator: Adobe Illustrator 24.1.3, SVG Export Plug-In . SVG Version: 6.00 Build 0)  -->
<svg version="1.1" id="Capa_1" xmlns="http://www.w3.org/2000/svg" xmlns:xlink="http://www.w3.org/1999/xlink" x="0px" y="0px"
	 viewBox="0 0 451.6 451.6" style="enable-background:new 0 0 451.6 451.6;" xml:space="preserve">
<style type="text/css">
	.st0{fill:#155EB1;}
</style>
<g>
	<g>
		<path class="st0" d="M386,94.5h-76.3V67.8c0-22.5-18.4-40.4-40.4-40.4h-87c-22.5,0-40.4,18.4-40.4,40.4v26.6H65.5
			C29.2,94.5,0,123.6,0,160v198.7c0,36.4,29.2,65.5,65.5,65.5H386c36.4,0,65.5-29.2,65.5-65.5V160C451.6,123.6,422.4,94.5,386,94.5z
			 M173.1,67.3c0-5.1,4.1-9.2,9.2-9.2h87c5.1,0,9.2,4.1,9.2,9.2V94H173.1V67.3z M280.6,274.7h-39.4v38.9c0,8.7-7.2,15.4-15.4,15.4
			s-15.4-7.2-15.4-15.4v-38.9h-38.9c-8.7,0-15.4-7.2-15.4-15.4c0-8.2,7.2-15.4,15.4-15.4h38.9v-38.9c0-8.7,7.2-15.4,15.4-15.4
			s15.4,7.2,15.4,15.4V244h38.9c8.7,0,15.4,7.2,15.4,15.4C295.4,267.5,289.3,274.7,280.6,274.7z"/>
	</g>
</g>
</svg>
